<?xml version="1.0" encoding="UTF-8" standalone="no"?>
<!-- Created with Inkscape (http://www.inkscape.org/) -->

<svg
   xmlns:osb="http://www.openswatchbook.org/uri/2009/osb"
   xmlns:dc="http://purl.org/dc/elements/1.1/"
   xmlns:cc="http://creativecommons.org/ns#"
   xmlns:rdf="http://www.w3.org/1999/02/22-rdf-syntax-ns#"
   xmlns:svg="http://www.w3.org/2000/svg"
   xmlns="http://www.w3.org/2000/svg"
   xmlns:xlink="http://www.w3.org/1999/xlink"
   xmlns:sodipodi="http://sodipodi.sourceforge.net/DTD/sodipodi-0.dtd"
   xmlns:inkscape="http://www.inkscape.org/namespaces/inkscape"
   width="800"
   height="800"
   id="svg3508"
   version="1.1"
   inkscape:version="0.48.3.1 r9886"
   sodipodi:docname="V4.svg">
  <title
     id="title5341">Valama Logo (long)</title>
  <defs
     id="defs3510">
    <linearGradient
       inkscape:collect="always"
       xlink:href="#linearGradient5681-3"
       id="linearGradient6282-2"
       gradientUnits="userSpaceOnUse"
       x1="153.10725"
       y1="460.23892"
       x2="275.76965"
       y2="460.23892" />
    <linearGradient
       id="linearGradient5681-3"
       osb:paint="solid">
      <stop
         style="stop-color:#000000;stop-opacity:1;"
         offset="0"
         id="stop5683-5" />
    </linearGradient>
    <linearGradient
       id="linearGradient3530"
       osb:paint="solid">
      <stop
         style="stop-color:#000000;stop-opacity:1;"
         offset="0"
         id="stop3532" />
    </linearGradient>
    <linearGradient
       id="linearGradient3535"
       osb:paint="solid">
      <stop
         style="stop-color:#000000;stop-opacity:1;"
         offset="0"
         id="stop3537" />
    </linearGradient>
    <linearGradient
       id="linearGradient3540"
       osb:paint="solid">
      <stop
         style="stop-color:#000000;stop-opacity:1;"
         offset="0"
         id="stop3542" />
    </linearGradient>
    <linearGradient
       id="linearGradient3545"
       osb:paint="solid">
      <stop
         style="stop-color:#000000;stop-opacity:1;"
         offset="0"
         id="stop3547" />
    </linearGradient>
    <linearGradient
       id="linearGradient3550"
       osb:paint="solid">
      <stop
         style="stop-color:#000000;stop-opacity:1;"
         offset="0"
         id="stop3552" />
    </linearGradient>
    <linearGradient
       id="linearGradient3555"
       osb:paint="solid">
      <stop
         style="stop-color:#000000;stop-opacity:1;"
         offset="0"
         id="stop3557" />
    </linearGradient>
    <linearGradient
       id="linearGradient3560"
       osb:paint="solid">
      <stop
         style="stop-color:#000000;stop-opacity:1;"
         offset="0"
         id="stop3562" />
    </linearGradient>
    <linearGradient
       id="linearGradient3565"
       osb:paint="solid">
      <stop
         style="stop-color:#000000;stop-opacity:1;"
         offset="0"
         id="stop3567" />
    </linearGradient>
    <linearGradient
       id="linearGradient3570"
       osb:paint="solid">
      <stop
         style="stop-color:#000000;stop-opacity:1;"
         offset="0"
         id="stop3572" />
    </linearGradient>
    <linearGradient
       id="linearGradient3575"
       osb:paint="solid">
      <stop
         style="stop-color:#000000;stop-opacity:1;"
         offset="0"
         id="stop3577" />
    </linearGradient>
    <linearGradient
       inkscape:collect="always"
       xlink:href="#linearGradient5681-9-4"
       id="linearGradient6304-8"
       gradientUnits="userSpaceOnUse"
       x1="153.10725"
       y1="460.23892"
       x2="275.76965"
       y2="460.23892" />
    <linearGradient
       id="linearGradient5681-9-4"
       osb:paint="solid">
      <stop
         style="stop-color:#000000;stop-opacity:1;"
         offset="0"
         id="stop5683-2-2" />
    </linearGradient>
    <filter
       color-interpolation-filters="sRGB"
       inkscape:collect="always"
       id="filter5988-2"
       x="-0.094016209"
       width="1.1880324"
       y="-0.12500156"
       height="1.2500031">
      <feGaussianBlur
         inkscape:collect="always"
         stdDeviation="4.7297361"
         id="feGaussianBlur5990-5" />
    </filter>
    <linearGradient
       id="linearGradient3585"
       osb:paint="solid">
      <stop
         style="stop-color:#000000;stop-opacity:1;"
         offset="0"
         id="stop3587" />
    </linearGradient>
    <linearGradient
       id="linearGradient3590"
       osb:paint="solid">
      <stop
         style="stop-color:#000000;stop-opacity:1;"
         offset="0"
         id="stop3592" />
    </linearGradient>
    <linearGradient
       id="linearGradient3595"
       osb:paint="solid">
      <stop
         style="stop-color:#000000;stop-opacity:1;"
         offset="0"
         id="stop3597" />
    </linearGradient>
    <linearGradient
       id="linearGradient3600"
       osb:paint="solid">
      <stop
         style="stop-color:#000000;stop-opacity:1;"
         offset="0"
         id="stop3602" />
    </linearGradient>
    <linearGradient
       id="linearGradient3605"
       osb:paint="solid">
      <stop
         style="stop-color:#000000;stop-opacity:1;"
         offset="0"
         id="stop3607" />
    </linearGradient>
    <linearGradient
       id="linearGradient3610"
       osb:paint="solid">
      <stop
         style="stop-color:#000000;stop-opacity:1;"
         offset="0"
         id="stop3612" />
    </linearGradient>
    <linearGradient
       id="linearGradient3615"
       osb:paint="solid">
      <stop
         style="stop-color:#000000;stop-opacity:1;"
         offset="0"
         id="stop3617" />
    </linearGradient>
    <linearGradient
       id="linearGradient3620"
       osb:paint="solid">
      <stop
         style="stop-color:#000000;stop-opacity:1;"
         offset="0"
         id="stop3622" />
    </linearGradient>
    <linearGradient
       id="linearGradient3625"
       osb:paint="solid">
      <stop
         style="stop-color:#000000;stop-opacity:1;"
         offset="0"
         id="stop3627" />
    </linearGradient>
    <linearGradient
       id="linearGradient3630"
       osb:paint="solid">
      <stop
         style="stop-color:#000000;stop-opacity:1;"
         offset="0"
         id="stop3632" />
    </linearGradient>
    <linearGradient
       inkscape:collect="always"
       xlink:href="#linearGradient5681-3-9"
       id="linearGradient6282-2-3"
       gradientUnits="userSpaceOnUse"
       x1="153.10725"
       y1="460.23892"
       x2="275.76965"
       y2="460.23892" />
    <linearGradient
       id="linearGradient5681-3-9"
       osb:paint="solid">
      <stop
         style="stop-color:#000000;stop-opacity:1;"
         offset="0"
         id="stop5683-5-8" />
    </linearGradient>
    <linearGradient
       id="linearGradient3961"
       osb:paint="solid">
      <stop
         style="stop-color:#000000;stop-opacity:1;"
         offset="0"
         id="stop3963" />
    </linearGradient>
    <linearGradient
       id="linearGradient3966"
       osb:paint="solid">
      <stop
         style="stop-color:#000000;stop-opacity:1;"
         offset="0"
         id="stop3968" />
    </linearGradient>
    <linearGradient
       id="linearGradient3971"
       osb:paint="solid">
      <stop
         style="stop-color:#000000;stop-opacity:1;"
         offset="0"
         id="stop3973" />
    </linearGradient>
    <linearGradient
       id="linearGradient3976"
       osb:paint="solid">
      <stop
         style="stop-color:#000000;stop-opacity:1;"
         offset="0"
         id="stop3978" />
    </linearGradient>
    <linearGradient
       id="linearGradient3981"
       osb:paint="solid">
      <stop
         style="stop-color:#000000;stop-opacity:1;"
         offset="0"
         id="stop3983" />
    </linearGradient>
    <linearGradient
       id="linearGradient3986"
       osb:paint="solid">
      <stop
         style="stop-color:#000000;stop-opacity:1;"
         offset="0"
         id="stop3988" />
    </linearGradient>
    <linearGradient
       id="linearGradient3991"
       osb:paint="solid">
      <stop
         style="stop-color:#000000;stop-opacity:1;"
         offset="0"
         id="stop3993" />
    </linearGradient>
    <linearGradient
       id="linearGradient3996"
       osb:paint="solid">
      <stop
         style="stop-color:#000000;stop-opacity:1;"
         offset="0"
         id="stop3998" />
    </linearGradient>
    <linearGradient
       id="linearGradient4001"
       osb:paint="solid">
      <stop
         style="stop-color:#000000;stop-opacity:1;"
         offset="0"
         id="stop4003" />
    </linearGradient>
    <linearGradient
       id="linearGradient4006"
       osb:paint="solid">
      <stop
         style="stop-color:#000000;stop-opacity:1;"
         offset="0"
         id="stop4008" />
    </linearGradient>
    <linearGradient
       inkscape:collect="always"
       xlink:href="#linearGradient5681-9-4-5"
       id="linearGradient6304-8-7"
       gradientUnits="userSpaceOnUse"
       x1="153.10725"
       y1="460.23892"
       x2="275.76965"
       y2="460.23892" />
    <linearGradient
       id="linearGradient5681-9-4-5"
       osb:paint="solid">
      <stop
         style="stop-color:#000000;stop-opacity:1;"
         offset="0"
         id="stop5683-2-2-3" />
    </linearGradient>
    <filter
       color-interpolation-filters="sRGB"
       inkscape:collect="always"
       id="filter5988-2-3"
       x="-0.094016209"
       width="1.1880324"
       y="-0.12500156"
       height="1.2500031">
      <feGaussianBlur
         inkscape:collect="always"
         stdDeviation="4.7297361"
         id="feGaussianBlur5990-5-3" />
    </filter>
    <linearGradient
       id="linearGradient4016"
       osb:paint="solid">
      <stop
         style="stop-color:#000000;stop-opacity:1;"
         offset="0"
         id="stop4018" />
    </linearGradient>
    <linearGradient
       id="linearGradient4021"
       osb:paint="solid">
      <stop
         style="stop-color:#000000;stop-opacity:1;"
         offset="0"
         id="stop4023" />
    </linearGradient>
    <linearGradient
       id="linearGradient4026"
       osb:paint="solid">
      <stop
         style="stop-color:#000000;stop-opacity:1;"
         offset="0"
         id="stop4028" />
    </linearGradient>
    <linearGradient
       id="linearGradient4031"
       osb:paint="solid">
      <stop
         style="stop-color:#000000;stop-opacity:1;"
         offset="0"
         id="stop4033" />
    </linearGradient>
    <linearGradient
       id="linearGradient4036"
       osb:paint="solid">
      <stop
         style="stop-color:#000000;stop-opacity:1;"
         offset="0"
         id="stop4038" />
    </linearGradient>
    <linearGradient
       id="linearGradient4041"
       osb:paint="solid">
      <stop
         style="stop-color:#000000;stop-opacity:1;"
         offset="0"
         id="stop4043" />
    </linearGradient>
    <linearGradient
       id="linearGradient4046"
       osb:paint="solid">
      <stop
         style="stop-color:#000000;stop-opacity:1;"
         offset="0"
         id="stop4048" />
    </linearGradient>
    <linearGradient
       id="linearGradient4051"
       osb:paint="solid">
      <stop
         style="stop-color:#000000;stop-opacity:1;"
         offset="0"
         id="stop4053" />
    </linearGradient>
    <linearGradient
       id="linearGradient4056"
       osb:paint="solid">
      <stop
         style="stop-color:#000000;stop-opacity:1;"
         offset="0"
         id="stop4058" />
    </linearGradient>
    <linearGradient
       id="linearGradient4061"
       osb:paint="solid">
      <stop
         style="stop-color:#000000;stop-opacity:1;"
         offset="0"
         id="stop4063" />
    </linearGradient>
    <filter
       color-interpolation-filters="sRGB"
       inkscape:collect="always"
       id="filter6210-2-3">
      <feGaussianBlur
         inkscape:collect="always"
         stdDeviation="1.6477947"
         id="feGaussianBlur6212-6-8" />
    </filter>
    <linearGradient
       inkscape:collect="always"
       id="linearGradient8383-9">
      <stop
         style="stop-color:#f8334f;stop-opacity:1;"
         offset="0"
         id="stop8385-9" />
      <stop
         style="stop-color:#f8334f;stop-opacity:0;"
         offset="1"
         id="stop8387-9" />
    </linearGradient>
    <filter
       color-interpolation-filters="sRGB"
       inkscape:collect="always"
       id="filter6210-1-1-9-0">
      <feGaussianBlur
         inkscape:collect="always"
         stdDeviation="1.6477947"
         id="feGaussianBlur6212-2-0-1-9" />
    </filter>
    <linearGradient
       inkscape:collect="always"
       xlink:href="#linearGradient5681-3-9"
       id="linearGradient4369"
       gradientUnits="userSpaceOnUse"
       x1="153.10725"
       y1="460.23892"
       x2="275.76965"
       y2="460.23892" />
    <linearGradient
       inkscape:collect="always"
       xlink:href="#linearGradient5681-9-4-5"
       id="linearGradient4391"
       gradientUnits="userSpaceOnUse"
       x1="153.10725"
       y1="460.23892"
       x2="275.76965"
       y2="460.23892" />
    <linearGradient
       inkscape:collect="always"
       xlink:href="#linearGradient5681-3-9"
       id="linearGradient4420"
       gradientUnits="userSpaceOnUse"
       x1="153.10725"
       y1="460.23892"
       x2="275.76965"
       y2="460.23892" />
    <linearGradient
       inkscape:collect="always"
       xlink:href="#linearGradient5681-3-9"
       id="linearGradient4422"
       gradientUnits="userSpaceOnUse"
       x1="153.10725"
       y1="460.23892"
       x2="275.76965"
       y2="460.23892" />
    <linearGradient
       inkscape:collect="always"
       xlink:href="#linearGradient5681-3-9"
       id="linearGradient4424"
       gradientUnits="userSpaceOnUse"
       x1="153.10725"
       y1="460.23892"
       x2="275.76965"
       y2="460.23892" />
    <linearGradient
       inkscape:collect="always"
       xlink:href="#linearGradient5681-3-9"
       id="linearGradient4426"
       gradientUnits="userSpaceOnUse"
       x1="153.10725"
       y1="460.23892"
       x2="275.76965"
       y2="460.23892" />
    <linearGradient
       inkscape:collect="always"
       xlink:href="#linearGradient5681-3-9"
       id="linearGradient4428"
       gradientUnits="userSpaceOnUse"
       x1="153.10725"
       y1="460.23892"
       x2="275.76965"
       y2="460.23892" />
    <linearGradient
       inkscape:collect="always"
       xlink:href="#linearGradient5681-3-9"
       id="linearGradient4430"
       gradientUnits="userSpaceOnUse"
       x1="153.10725"
       y1="460.23892"
       x2="275.76965"
       y2="460.23892" />
    <linearGradient
       inkscape:collect="always"
       xlink:href="#linearGradient5681-3-9"
       id="linearGradient4432"
       gradientUnits="userSpaceOnUse"
       x1="153.10725"
       y1="460.23892"
       x2="275.76965"
       y2="460.23892" />
    <linearGradient
       inkscape:collect="always"
       xlink:href="#linearGradient5681-3-9"
       id="linearGradient4434"
       gradientUnits="userSpaceOnUse"
       x1="153.10725"
       y1="460.23892"
       x2="275.76965"
       y2="460.23892" />
    <linearGradient
       inkscape:collect="always"
       xlink:href="#linearGradient5681-3-9"
       id="linearGradient4436"
       gradientUnits="userSpaceOnUse"
       x1="153.10725"
       y1="460.23892"
       x2="275.76965"
       y2="460.23892" />
    <linearGradient
       inkscape:collect="always"
       xlink:href="#linearGradient5681-3-9"
       id="linearGradient4438"
       gradientUnits="userSpaceOnUse"
       x1="153.10725"
       y1="460.23892"
       x2="275.76965"
       y2="460.23892" />
    <linearGradient
       inkscape:collect="always"
       xlink:href="#linearGradient5681-3-9"
       id="linearGradient4440"
       gradientUnits="userSpaceOnUse"
       x1="153.10725"
       y1="460.23892"
       x2="275.76965"
       y2="460.23892" />
    <linearGradient
       inkscape:collect="always"
       xlink:href="#linearGradient5681-9-4-5"
       id="linearGradient4442"
       gradientUnits="userSpaceOnUse"
       x1="153.10725"
       y1="460.23892"
       x2="275.76965"
       y2="460.23892" />
    <linearGradient
       inkscape:collect="always"
       xlink:href="#linearGradient5681-9-4-5"
       id="linearGradient4444"
       gradientUnits="userSpaceOnUse"
       x1="153.10725"
       y1="460.23892"
       x2="275.76965"
       y2="460.23892" />
    <linearGradient
       inkscape:collect="always"
       xlink:href="#linearGradient5681-9-4-5"
       id="linearGradient4446"
       gradientUnits="userSpaceOnUse"
       x1="153.10725"
       y1="460.23892"
       x2="275.76965"
       y2="460.23892" />
    <linearGradient
       inkscape:collect="always"
       xlink:href="#linearGradient5681-9-4-5"
       id="linearGradient4448"
       gradientUnits="userSpaceOnUse"
       x1="153.10725"
       y1="460.23892"
       x2="275.76965"
       y2="460.23892" />
    <linearGradient
       inkscape:collect="always"
       xlink:href="#linearGradient5681-9-4-5"
       id="linearGradient4450"
       gradientUnits="userSpaceOnUse"
       x1="153.10725"
       y1="460.23892"
       x2="275.76965"
       y2="460.23892" />
    <linearGradient
       inkscape:collect="always"
       xlink:href="#linearGradient5681-9-4-5"
       id="linearGradient4452"
       gradientUnits="userSpaceOnUse"
       x1="153.10725"
       y1="460.23892"
       x2="275.76965"
       y2="460.23892" />
    <linearGradient
       inkscape:collect="always"
       xlink:href="#linearGradient5681-9-4-5"
       id="linearGradient4454"
       gradientUnits="userSpaceOnUse"
       x1="153.10725"
       y1="460.23892"
       x2="275.76965"
       y2="460.23892" />
    <linearGradient
       inkscape:collect="always"
       xlink:href="#linearGradient5681-9-4-5"
       id="linearGradient4456"
       gradientUnits="userSpaceOnUse"
       x1="153.10725"
       y1="460.23892"
       x2="275.76965"
       y2="460.23892" />
    <linearGradient
       inkscape:collect="always"
       xlink:href="#linearGradient5681-9-4-5"
       id="linearGradient4458"
       gradientUnits="userSpaceOnUse"
       x1="153.10725"
       y1="460.23892"
       x2="275.76965"
       y2="460.23892" />
    <linearGradient
       inkscape:collect="always"
       xlink:href="#linearGradient5681-9-4-5"
       id="linearGradient4460"
       gradientUnits="userSpaceOnUse"
       x1="153.10725"
       y1="460.23892"
       x2="275.76965"
       y2="460.23892" />
    <linearGradient
       inkscape:collect="always"
       xlink:href="#linearGradient5681-9-4-5"
       id="linearGradient4462"
       gradientUnits="userSpaceOnUse"
       x1="153.10725"
       y1="460.23892"
       x2="275.76965"
       y2="460.23892" />
    <linearGradient
       inkscape:collect="always"
       xlink:href="#linearGradient8383-9"
       id="linearGradient4464"
       gradientUnits="userSpaceOnUse"
       x1="368.81577"
       y1="663.32343"
       x2="371.42651"
       y2="601.18878" />
  </defs>
  <sodipodi:namedview
     id="base"
     pagecolor="#ffffff"
     bordercolor="#666666"
     borderopacity="1.0"
     inkscape:pageopacity="0.0"
     inkscape:pageshadow="2"
     inkscape:zoom="0.98994949"
     inkscape:cx="229.82125"
     inkscape:cy="406.58726"
     inkscape:document-units="px"
     inkscape:current-layer="layer1"
     showgrid="false"
     inkscape:window-width="1920"
     inkscape:window-height="1016"
     inkscape:window-x="-2"
     inkscape:window-y="-3"
     inkscape:window-maximized="1" />
  <metadata
     id="metadata3513">
    <rdf:RDF>
      <cc:Work
         rdf:about="">
        <dc:format>image/svg+xml</dc:format>
        <dc:type
           rdf:resource="http://purl.org/dc/dcmitype/StillImage" />
        <cc:license
           rdf:resource="http://www.gnu.org/licenses/gpl.html" />
        <dc:title>Valama Logo (long)</dc:title>
        <dc:rights>
          <cc:Agent>
            <dc:title>GPLv3+</dc:title>
          </cc:Agent>
        </dc:rights>
        <dc:creator>
          <cc:Agent>
            <dc:title>Dominique Lasserre</dc:title>
          </cc:Agent>
        </dc:creator>
      </cc:Work>
    </rdf:RDF>
  </metadata>
  <g
     inkscape:label="Layer 1"
     inkscape:groupmode="layer"
     id="layer1"
     transform="translate(0,-252.36196)">
    <g
       id="g4393"
       transform="matrix(1.26,0,0,1.26,-5.1517553,258.00894)">
      <g
         style="fill:url(#linearGradient4440);fill-opacity:1"
         id="g6216-2-3"
         transform="matrix(4,0,0,4,-479.6107,-1537.9549)">
        <path
           style="fill:url(#linearGradient4420);fill-opacity:1;fill-rule:evenodd;stroke:#000000;stroke-width:1.92400002;stroke-linecap:round;stroke-linejoin:miter;stroke-miterlimit:4;stroke-opacity:1;stroke-dasharray:none;stroke-dashoffset:0"
           id="path6218-9-8"
           d="m 271.47237,440.85025 c -0.20057,0.63114 -0.24286,1.29915 -0.2927,1.9553 -0.0993,1.46405 -0.0318,2.93148 -0.007,4.39669 -0.0111,1.96155 -0.16132,1.51741 -3.51183,2.49007 -0.15977,0.0464 -0.15475,-0.29488 -0.2211,-0.44744 -0.0841,-0.19333 -0.15317,-0.39283 -0.22976,-0.58925 -0.4395,-1.19521 -1.02377,-2.3406 -1.71002,-3.41335 -0.40953,-0.64019 -0.71385,-1.0153 -1.17067,-1.61532 -0.54427,-0.60306 -1.48219,-1.94113 -2.34439,-2.11117 -0.11344,-0.0224 -0.23094,0.0118 -0.34641,0.0178 0.88513,-0.43976 1.6808,-1.15497 2.6554,-1.31928 0.40238,-0.0678 -0.50589,0.64305 -0.71671,0.99244 -0.32586,0.54006 -0.61074,1.10434 -0.88976,1.67002 -0.77354,1.56829 -1.58766,3.46622 -2.21081,5.07413 -0.42379,1.09352 -0.80452,2.20323 -1.20679,3.30485 -2.06107,5.96669 -3.8277,12.06996 -4.73024,18.33023 -0.13821,0.95862 -0.22187,1.92431 -0.3328,2.88646 -0.22028,2.95394 -0.131,5.99264 0.78463,8.83575 0.0937,0.29103 0.21541,0.57229 0.32312,0.85844 0.045,0.13631 0.65286,1.35199 0.91299,1.28996 0.11734,-0.028 0.29304,-0.35122 0.17792,-0.31514 -0.94378,0.29573 -1.7696,1.26848 -2.74747,1.12031 -0.50391,-0.0764 0.26511,-0.98426 0.39766,-1.47639 1.54392,-7.252 3.04179,-14.51398 4.52014,-21.7798 1.39931,-6.72757 2.83912,-13.44648 4.28738,-20.16364 0.45933,-1.90687 0.74977,-3.87109 1.425,-5.72025 0.46467,-1.2829 3.08276,-3.33224 3.55146,-1.75267 0.0778,0.26223 0.13447,1.62998 0.13615,1.65636 0.0345,0.54454 0.0721,1.08887 0.10815,1.6333 0.31862,5.58317 0.84454,11.15034 1.56189,16.69626 0.19033,1.47144 0.40553,2.93956 0.6083,4.40933 1.09344,7.03989 2.37991,14.05196 4.02503,20.98463 0.17618,0.67277 0.35235,1.34554 0.52853,2.01831 0,0 -2.87203,1.54836 -2.87203,1.54836 l 0,0 c -0.14624,-0.69126 -0.29247,-1.38252 -0.43871,-2.07378 -1.37085,-7.04174 -2.54233,-14.12067 -3.64858,-21.20837 -0.6104,-4.12321 -1.22682,-8.24577 -1.7453,-12.38187 -0.59351,-4.73467 -0.19523,-1.88023 -0.71803,-6.18056 -0.0912,-0.75031 -0.19591,-1.49891 -0.29387,-2.24837 -0.0744,-0.52365 -0.14458,-1.04791 -0.22317,-1.57094 -0.0503,-0.33504 -0.10444,-0.66955 -0.16359,-1.00315 -0.0261,-0.14706 -0.0815,-0.28952 -0.0921,-0.43851 -0.002,-0.0351 0.0362,0.099 0.0669,0.0818 1.04565,-0.58852 2.0451,-1.2562 3.0846,-1.85551 0.0618,-0.0356 -0.0951,0.10624 -0.14263,0.15937 -0.94359,1.7932 -1.25654,3.94325 -1.86213,5.85463 -1.74082,6.75645 -3.31872,13.55273 -4.75797,20.37998 -1.43648,7.13118 -2.84594,14.2729 -3.88247,21.47503 -0.0772,0.4873 0.0922,1.0898 -0.23175,1.46191 -0.93779,1.07707 -2.18496,1.84618 -3.35791,2.66087 -0.11354,0.0789 -0.28878,0.0195 -0.41259,-0.042 -0.3998,-0.19862 -0.73924,-1.16158 -0.89442,-1.51112 -0.0971,-0.30349 -0.20867,-0.60271 -0.29118,-0.91047 -0.79593,-2.96871 -0.77784,-6.09923 -0.476,-9.13371 0.13839,-0.98123 0.25221,-1.96624 0.41518,-2.94369 1.04208,-6.25015 2.80005,-12.36079 4.73443,-18.38482 0.36846,-1.08994 0.72118,-2.18532 1.10537,-3.26981 0.65455,-1.84763 1.19055,-3.21651 1.95141,-4.98423 0.23712,-0.55091 0.48027,-1.09949 0.74028,-1.63997 0.17163,-0.35675 0.23839,-0.81158 0.55405,-1.0505 1.12945,-0.85487 2.44548,-1.43018 3.66822,-2.14527 0.13609,0.0325 0.27852,0.0452 0.40827,0.0976 0.94189,0.38023 1.69705,1.58189 2.32728,2.31891 1.16822,1.58254 2.22487,3.24527 2.99791,5.06115 0.0819,0.17834 0.15393,0.36153 0.24565,0.53502 0.058,0.10976 0.3036,0.24061 0.20246,0.31263 -0.98393,0.70057 -2.12719,1.14823 -3.15201,1.7875 -0.0548,0.0341 0.13086,0.10374 0.18239,0.0649 0.20373,-0.15363 -0.0531,-0.64719 0.12873,-0.75459 0.0349,-1.4668 -0.0473,-2.93257 -0.0262,-4.39916 0.0177,-0.66586 0.0381,-1.33324 0.17054,-1.98848 0,0 3.36378,-1.59763 3.36378,-1.59763 z"
           inkscape:connector-curvature="0" />
        <path
           style="fill:url(#linearGradient4422);fill-opacity:1;fill-rule:nonzero;stroke:#000000;stroke-width:1.92400002;stroke-linecap:round;stroke-linejoin:miter;stroke-miterlimit:4;stroke-opacity:1;stroke-dasharray:none;stroke-dashoffset:0"
           id="path6220-4-4"
           d="m 190.05565,420.53442 c -0.27352,1.916 -0.31607,2.05224 -0.49816,4.34693 -0.23061,2.90607 -0.37211,5.81852 -0.56401,8.7274 -0.40705,6.17019 -0.37749,5.58872 -0.85242,12.00283 -0.43881,6.63071 -0.94566,13.26029 -1.13073,19.90486 -0.0549,1.97005 -0.0682,3.94121 -0.0709,5.91202 -0.002,1.75349 -0.0103,3.50793 0.0556,5.26018 0.0504,1.34191 0.19552,2.67858 0.29327,4.01788 0.15293,0.82803 0.20762,1.68039 0.45877,2.4841 0.87328,2.79454 9.84825,0.72604 -6.31738,3.76481 -0.62833,0.11812 0.47119,-1.19262 0.6265,-1.8128 0.44794,-1.78874 0.63915,-3.81304 0.8649,-5.6304 0.0842,-0.91379 0.16835,-1.82758 0.25252,-2.74137 0.056,-0.71583 0.1042,-1.43231 0.16805,-2.14748 0.0397,-0.4444 0.0531,-0.89377 0.14248,-1.33089 0.0437,-0.21348 0.0556,-0.51035 0.25294,-0.60279 8.30176,-3.88941 5.80323,-4.88316 9.89448,-1.97708 0.9938,0.56872 1.95757,1.19348 2.98142,1.70615 4.70302,2.35493 9.74771,3.90616 14.93006,4.78451 2.00522,0.33986 4.03931,0.47913 6.05897,0.7187 0,0 -4.26223,3.01855 -4.26223,3.01855 l 0,0 c -2.02545,-0.25242 -4.05941,-0.44403 -6.07635,-0.75728 -2.0639,-0.32054 -4.12285,-0.68562 -6.16075,-1.14323 -4.62704,-1.039 -9.08852,-2.62565 -13.47787,-4.39692 -0.76338,-0.29657 -2.76508,-0.2225 -2.29015,-0.8897 1.37865,-1.93679 3.93319,-2.67427 5.83885,-4.09565 0.22803,-0.17008 -0.61617,0.10133 -0.78779,0.32821 -0.30954,0.4092 -0.41649,0.94242 -0.54845,1.43825 -0.42305,1.58966 -0.5723,3.41716 -0.76368,5.02965 -0.14362,1.9337 -0.29053,3.48922 -0.31996,5.41267 -0.009,0.58443 0.49889,1.39111 0.0399,1.75304 -8.48482,6.69116 -7.58487,6.4854 -7.27415,2.77991 0.0799,-0.95256 0.14397,-1.90638 0.21596,-2.85957 0.72907,-12.80166 -0.29736,5.54176 0.48515,-9.7278 0.10353,-2.02027 0.23859,-4.03881 0.34842,-6.05875 0.35926,-6.6069 0.66491,-13.2167 0.97052,-19.82625 0.19511,-7.44336 0.44681,-14.95095 -0.51428,-22.35805 -0.0582,-0.44858 -0.14907,-0.89231 -0.2236,-1.33846 0,0 7.25415,-3.69618 7.25415,-3.69618 z"
           inkscape:connector-curvature="0" />
        <path
           style="fill:url(#linearGradient4424);fill-opacity:1;fill-rule:nonzero;stroke:#000000;stroke-width:1.92400002;stroke-linecap:round;stroke-linejoin:miter;stroke-miterlimit:4;stroke-opacity:1;stroke-dasharray:none;stroke-dashoffset:0"
           id="path6222-2-0"
           d="m 190.99024,459.12554 c 0.21985,-0.85615 0.31809,-1.27355 0.60424,-2.188 0.56977,-1.8208 1.19168,-3.62498 1.76469,-5.44476 0.24926,-0.79161 2.6186,-8.47483 2.73947,-8.86655 1.58471,-5.28534 3.25668,-10.54972 5.31828,-15.67184 0.81063,-2.01402 2.08301,-5.02956 3.30163,-6.97248 0.32502,-0.5182 0.77338,-0.94794 1.16007,-1.42191 2.52494,-1.23815 4.84181,-3.05185 7.57481,-3.71446 0.59607,-0.14451 0.59286,1.10869 0.65716,1.71864 0.13527,1.28307 -0.55859,4.2643 -0.81838,5.38297 -0.002,0.007 -1.39204,5.45099 -1.43861,5.63331 -0.4003,2.14653 -0.65583,2.86998 -0.58249,5.07337 0.12072,3.62638 1.27415,7.05578 2.23601,10.51746 0.43163,1.55341 0.8511,3.11017 1.27664,4.66526 1.37877,4.99393 2.47095,10.06233 3.13289,15.20261 0.26792,2.08055 0.58327,5.31156 0.54746,7.52472 -0.01,0.61856 -0.12981,1.23046 -0.19471,1.84569 -1.93214,2.77584 -1.7766,2.84135 -8.42146,3.51567 -0.70669,0.0717 -0.6639,-1.25886 -0.92841,-1.91809 -0.31825,-0.7932 -0.566,-1.61338 -0.81639,-2.43055 -0.60038,-1.95932 -0.79838,-2.9214 -1.26408,-4.87811 -0.557,-2.17042 -0.24974,-1.21512 -0.85715,-2.88588 0,0 6.84739,-3.66781 6.84739,-3.66781 l 0,0 c 0.14253,1.90678 0.0452,0.84827 0.31949,3.17289 0.14083,0.77831 0.23644,1.56617 0.42249,2.33493 0.36224,1.49683 0.95341,3.3043 1.72789,4.65593 0.30101,0.52531 1.49024,0.98804 1.09652,1.44796 -1.58059,1.84632 -4.04932,2.70014 -5.94727,4.21835 -0.32398,0.25916 0.78508,-0.26868 1.17761,-0.40301 0.28969,-0.66744 0.69909,-1.29485 0.86907,-2.00231 0.56904,-2.36843 0.5103,-5.49939 0.32045,-7.83956 -0.41664,-5.13577 -1.6573,-10.15965 -3.21027,-15.05693 -0.51588,-1.50201 -1.03177,-3.00402 -1.54766,-4.50602 -0.48131,-1.30785 -0.99084,-2.60565 -1.44394,-3.92354 -0.72008,-2.09448 -1.43251,-4.1902 -1.62319,-6.41573 -0.19142,-2.23427 0.14912,-3.1001 0.5938,-5.26087 0.78629,-2.70095 1.6689,-5.43084 1.86266,-8.25869 0.0458,-0.66914 0.0234,-1.34559 -0.0584,-2.01127 -0.0356,-0.28942 -0.51115,-0.63452 -0.2905,-0.82516 1.6763,-1.44831 3.68225,-2.464 5.52337,-3.696 -0.62218,0.51289 -1.33829,0.92946 -1.86653,1.53866 -1.69936,1.9598 -3.22479,5.00668 -4.24959,7.2817 -2.24288,4.97915 -3.81798,10.22013 -5.12029,15.51295 -0.91516,3.80967 -1.83133,7.60643 -2.51228,11.46627 -0.0604,0.34256 -0.41891,2.5443 -0.48816,3.18812 -0.0246,0.22871 -0.0235,0.45945 -0.0352,0.68918 0,0 -7.35907,3.67289 -7.35907,3.67289 z"
           inkscape:connector-curvature="0" />
        <path
           style="fill:url(#linearGradient4426);fill-opacity:1;fill-rule:nonzero;stroke:#000000;stroke-width:1.92400002;stroke-linecap:round;stroke-linejoin:miter;stroke-miterlimit:4;stroke-opacity:1;stroke-dasharray:none;stroke-dashoffset:0"
           id="path6224-4-8"
           d="m 198.5226,449.95447 c 0.14797,0.15165 0.27946,0.32136 0.44391,0.45497 1.65515,1.34476 3.65943,2.30374 5.57864,3.18724 2.85726,1.31533 4.3529,1.85926 7.32387,3.03726 4.84678,1.88907 9.82305,3.40671 14.78694,4.9489 3.60264,1.11927 1.12168,0.37734 3.84584,1.18158 3.1831,1.07733 2.03663,0.53613 -6.88285,4.60658 -0.40014,0.18261 -0.81749,-0.32547 -1.23213,-0.47218 -0.56731,-0.20073 -1.142,-0.37992 -1.713,-0.56988 0,0 6.11818,-4.20191 6.11818,-4.20191 l 0,0 c 0.63323,0.13702 1.26117,0.30125 1.89968,0.41106 0.49464,0.0851 1.84632,-0.18628 1.49575,0.1729 -6.48081,6.63987 -6.47004,7.02176 -6.08772,4.30324 -0.34003,-0.22901 -0.6589,-0.49314 -1.02011,-0.68704 -1.42696,-0.766 -3.39738,-1.50792 -4.85578,-2.07093 -3.80503,-1.4689 -7.65312,-2.82113 -11.50653,-4.15671 -1.33639,-0.48147 -2.66864,-0.97454 -4.00916,-1.44439 -2.66132,-0.9328 -4.29984,-1.416 -6.86479,-2.39531 -0.86722,-0.33112 -2.70189,-1.09503 -3.64231,-1.57934 -0.26303,-0.13546 -0.50513,-0.30818 -0.75769,-0.46227 0,0 7.07926,-4.26377 7.07926,-4.26377 z"
           inkscape:connector-curvature="0" />
        <path
           style="fill:url(#linearGradient4428);fill-opacity:1;fill-rule:nonzero;stroke:#000000;stroke-width:1.92400002;stroke-linecap:round;stroke-linejoin:miter;stroke-miterlimit:4;stroke-opacity:1;stroke-dasharray:none;stroke-dashoffset:0"
           id="path6226-8-4"
           d="m 221.29572,471.82302 c 0.55416,-4.55191 0.59948,-9.14661 0.72676,-13.7246 0.18376,-8.2455 0.198,-16.49694 -0.003,-24.74228 -0.089,-4.62014 -0.23184,-3.7402 7.03052,-7.56796 0.35307,-0.18609 0.36078,0.72091 0.44783,1.11041 0.0853,0.38182 -0.31691,2.27574 -0.31711,2.62661 -0.0277,1.70404 -0.005,0.5664 -0.0413,2.01814 -0.004,0.16404 0.11406,0.38588 -0.011,0.49215 -2.11165,1.79453 -4.37799,3.39867 -6.56699,5.098 l 5.94392,-5.81693 0,0 c -2.09931,1.65999 -4.19863,3.31999 -6.29794,4.97998 0.0785,-0.16699 0.18492,-0.32348 0.23539,-0.50094 0.19301,-0.67853 0.18923,-1.33242 0.23269,-2.03276 -0.11075,-4.34923 0.0921,1.5437 -0.18124,-2.0872 -0.004,-0.0479 0.0349,-0.0948 0.0726,-0.12468 2.05277,-1.62517 4.03013,-3.3555 6.19087,-4.83408 0.84013,-0.5749 -3.56014,4.59231 -0.93298,2.90803 -0.11683,0.99893 -0.26885,1.99439 -0.35049,2.99681 -0.10539,1.29392 -0.15994,2.59171 -0.21033,3.88893 -0.23422,6.02995 -0.12377,12.06565 0.12811,18.09299 0.16278,3.61285 0.13442,3.44858 0.35964,6.8271 0.0913,1.37021 0.21952,2.73782 0.30831,4.10819 0.13454,2.07683 -0.035,0.28512 0.11737,1.78 l -6.8818,4.50408 z"
           inkscape:connector-curvature="0"
           sodipodi:nodetypes="cccsccccccccccccscsscccccc" />
        <path
           style="fill:url(#linearGradient4430);fill-opacity:1;fill-rule:nonzero;stroke:#000000;stroke-width:1.92400002;stroke-linecap:round;stroke-linejoin:miter;stroke-miterlimit:4;stroke-opacity:1;stroke-dasharray:none;stroke-dashoffset:0"
           id="path6228-6-4"
           d="m 229.1748,429.89467 c 0.5504,2.35561 1.43537,4.62083 2.20326,6.91071 0.28743,0.85714 0.55776,1.71992 0.83665,2.57987 0.84001,2.59655 1.80039,5.15204 2.7924,7.69365 0.51975,1.33164 1.00251,2.59446 1.62489,3.87702 0.19222,0.39611 0.41964,0.77417 0.62945,1.16125 0.15065,0.20077 0.26055,0.43991 0.45195,0.60228 0.0547,0.0464 0.14079,-0.0266 0.2112,-0.0396 -2.23545,1.48473 -4.39785,3.08579 -6.70635,4.45418 -0.1521,0.0902 0.0751,-0.34797 0.0774,-0.52477 0.007,-0.5242 -0.10631,-1.05886 -0.19215,-1.57162 -0.17845,-0.84014 -0.0808,-0.46177 -0.2768,-1.13915 0,0 6.74879,-4.54914 6.74879,-4.54914 l 0,0 c 0.0499,0.75184 0.0101,0.34325 0.13434,1.22424 0.0831,0.42083 0.21954,1.14277 0.32692,1.56351 0.0547,0.21453 0.35732,0.49366 0.1885,0.63691 -0.71813,0.60927 -5.87581,7.72831 -7.0034,4.59545 -0.0956,-0.26565 -0.1595,-0.54168 -0.23928,-0.81252 -1.35192,-4.43213 -2.87475,-8.81388 -4.50595,-13.15047 -1.22586,-2.98439 -2.483,-5.96869 -4.07753,-8.77938 0,0 6.77506,-4.73226 6.77506,-4.73226 z"
           inkscape:connector-curvature="0" />
        <path
           style="fill:url(#linearGradient4432);fill-opacity:1;fill-rule:nonzero;stroke:#000000;stroke-width:1.92400002;stroke-linecap:round;stroke-linejoin:miter;stroke-miterlimit:4;stroke-opacity:1;stroke-dasharray:none;stroke-dashoffset:0"
           id="path6230-1-7"
           d="m 231.94736,456.60816 c 1.67917,-1.94753 3.14876,-4.07121 4.47498,-6.27214 0.44725,-0.74224 0.86862,-1.49977 1.30293,-2.24965 2.03806,-3.64973 3.79645,-7.46331 6.04918,-10.99027 0.70863,-1.1293 1.89741,-1.7917 2.7151,-2.82073 0.26825,-0.29148 0.0495,-0.25998 0.0428,-0.16027 -0.003,0.0457 0.0196,0.0896 0.0292,0.13445 0,0 6.19367,-5.61195 6.19367,-5.61195 l 0,0 c 0.53463,0.42626 0.94333,0.79971 0.83505,1.55901 -0.0682,0.13777 -0.12029,0.28475 -0.20459,0.4133 -0.36853,0.56201 -0.88527,1.00549 -1.41263,1.4084 -0.23512,0.17964 -0.48965,0.33466 -0.71325,0.52846 -0.27232,0.23603 -0.51395,0.5053 -0.77094,0.75794 -0.28838,0.36504 -0.59449,0.71673 -0.86513,1.0951 -0.63267,0.88451 -1.57535,2.43585 -2.10443,3.32967 -1.31454,2.22081 -2.50875,4.50563 -3.67389,6.8077 -0.93669,1.76728 -1.25698,2.41572 -2.23481,4.09993 -0.68726,1.18372 -1.42501,2.32884 -2.16911,3.47594 -0.1,0.15413 -0.19147,0.31362 -0.2872,0.47043 0,0 -7.207,4.02468 -7.207,4.02468 z"
           inkscape:connector-curvature="0" />
        <path
           style="fill:url(#linearGradient4434);fill-opacity:1;fill-rule:nonzero;stroke:#000000;stroke-width:1.92400002;stroke-linecap:round;stroke-linejoin:miter;stroke-miterlimit:4;stroke-opacity:1;stroke-dasharray:none;stroke-dashoffset:0"
           id="path6232-6-1"
           d="m 254.91306,426.61351 c -0.0456,0.1751 -0.099,2.35733 -0.137,2.53424 -0.1601,0.74421 -0.26257,1.48589 -0.38173,2.23878 -0.37165,2.34813 -0.68088,4.70043 -0.98587,7.05832 -0.59888,4.3731 -1.17825,8.74908 -1.82468,13.11555 -0.38787,2.61993 -1.26988,8.17542 -1.6114,10.73778 -0.24047,1.80415 -0.42882,3.61487 -0.64324,5.4223 -0.39955,4.53907 -0.79112,9.11814 -0.43568,13.67671 0.0988,1.26602 0.3648,3.39802 0.95765,4.66315 0.14476,0.3089 0.44068,0.52085 0.66102,0.78129 2.41253,-1.6577 0.56653,-0.38393 -5.64904,3.65521 l 6.91734,-3.94918 0,0 c -7.17655,5.49006 -4.63075,7.08811 -7.59792,4.85646 -0.13264,-0.41123 -0.32122,-0.80846 -0.39782,-1.2337 -0.29999,-1.66527 -0.25408,-3.6876 -0.20553,-5.32705 0.14003,-4.72914 0.5521,-9.45128 1.0569,-14.15327 1.29479,-10.5415 0.0462,-0.35445 1.32993,-10.89212 0.71491,-5.86836 1.49295,-11.74416 1.65963,-17.6607 0.0124,-0.47923 0.10499,-4.22823 0.13977,-4.99625 0.062,-1.37019 0.20579,-2.74059 0.12295,-4.11434 z"
           inkscape:connector-curvature="0"
           sodipodi:nodetypes="ccscsscccccccccscscccc" />
        <path
           style="fill:url(#linearGradient4436);fill-opacity:1;fill-rule:nonzero;stroke:#000000;stroke-width:1.92400002;stroke-linecap:round;stroke-linejoin:miter;stroke-miterlimit:4;stroke-opacity:1;stroke-dasharray:none;stroke-dashoffset:0"
           id="path6234-2-0"
           d="m 154.13295,505.64383 c -0.0177,-0.29303 -0.0909,-0.588 -0.0529,-0.87911 0.0793,-0.60861 0.26686,-1.19815 0.40144,-1.79696 0.18265,-0.81267 1.35498,-5.99035 1.42188,-6.34079 2.40782,-12.61341 -1.30688,5.0156 1.79161,-9.34433 0.33375,-1.80098 0.6675,-3.60197 1.00125,-5.40295 0.1701,-1.82013 0.18171,-3.6621 0.51029,-5.46038 0.37805,-2.0691 1.11462,-4.05719 1.60254,-6.10316 1.46658,-6.14972 0.98893,-5.04512 2.18338,-11.03537 0.33062,-1.65808 0.72149,-3.30357 1.08223,-4.95536 1.80509,-7.02476 0.36135,-1.68416 2.17976,-7.80751 0.2438,-0.82098 0.42483,-1.661 0.69937,-2.4722 0.1496,-0.442 0.84348,-1.91396 1.04461,-2.58508 0.0283,-0.0944 0.0148,-0.19646 0.0222,-0.29469 2.50154,-1.1009 4.89859,-2.47909 7.5046,-3.3027 0.28217,-0.0892 0.23699,0.55524 0.25392,0.85068 0.0293,0.51043 -0.0477,1.02281 -0.11747,1.52929 -0.10743,0.77999 -0.37111,1.53937 -0.41349,2.32559 -0.0477,0.88551 0.14532,1.76965 0.14491,2.65645 -5.3e-4,1.16002 -0.0985,2.31795 -0.14772,3.47692 -0.0595,2.82517 0.14047,5.64636 0.15456,8.47019 0.008,1.6327 -0.11445,3.26574 -0.0653,4.89772 0.13469,4.47399 0.51109,4.98998 0.82391,9.37388 0.0988,1.38453 0.10372,2.77416 0.15558,4.16123 0.28981,2.06437 0.0231,4.15334 0.1838,6.22202 0.0492,0.63383 0.2056,1.25477 0.3127,1.88143 0.0711,0.41587 0.14859,0.83062 0.2218,1.24612 0.0431,0.2449 0.0577,0.49633 0.12727,0.73507 0.027,0.0925 0.10505,0.16157 0.15758,0.24236 0,0 -7.33018,3.80108 -7.33018,3.80108 l 0,0 c -0.11352,-0.78129 0.0846,-1.84054 0.1414,-2.59688 0.0529,-0.70509 0.0771,-1.41224 0.1361,-2.11684 0.54355,-6.48752 0.0578,0.95476 0.50144,-6.57191 -0.068,-1.37715 -0.12668,-2.75479 -0.20385,-4.13146 -0.0866,-1.54516 -0.24786,-3.08677 -0.28749,-4.63385 -0.1521,-5.93791 0.27808,-4.01026 -0.0816,-9.82621 -0.0889,-1.4374 -0.35852,-2.86009 -0.44094,-4.29787 -0.0767,-1.3375 -0.0239,-2.67928 -0.0358,-4.01892 -1.07068,-5.70973 -0.25427,-0.61085 -0.73086,-5.78101 -0.0608,-0.65903 -0.22773,-1.30587 -0.28019,-1.96561 -0.0363,-0.45604 0.0165,-0.91488 0.0147,-1.37235 -6.2e-4,-0.16223 -0.16006,-0.40132 -0.0218,-0.4862 2.29622,-1.40961 4.73456,-2.57342 7.10184,-3.86013 -0.19719,0.0709 -0.42889,0.0808 -0.59159,0.21287 -0.93766,0.76138 -1.43923,1.75919 -1.95197,2.83551 -0.41006,0.86076 -0.74902,1.75363 -1.12175,2.6312 -2.14321,5.04607 -1.17883,2.45918 -2.93278,8.11548 -0.479,1.70482 -1.03448,3.38998 -1.437,5.11446 -0.40871,1.75102 -0.64094,3.53881 -0.99429,5.30184 -4.26709,21.29002 1.76088,-9.91836 -2.17109,11.50043 -0.3547,1.93215 -0.82625,3.84199 -1.16526,5.77695 -0.30726,1.75372 -0.51524,3.52339 -0.77286,5.28508 -0.16801,1.5868 -0.30905,3.17669 -0.50403,4.76041 -0.17391,1.4126 -0.49851,2.80762 -0.60245,4.22709 -0.0785,1.07236 0.0842,2.15032 0.0567,3.2252 -0.0423,1.65305 -0.43922,3.32492 -0.18758,4.98172 0,0 -7.29121,3.60156 -7.29121,3.60156 z"
           inkscape:connector-curvature="0" />
        <path
           style="fill:url(#linearGradient4438);fill-opacity:1;fill-rule:nonzero;stroke:#000000;stroke-width:1.92400002;stroke-linecap:round;stroke-linejoin:miter;stroke-miterlimit:4;stroke-opacity:1;stroke-dasharray:none;stroke-dashoffset:0"
           id="path6236-4-3"
           d="m 158.95649,484.06462 c 0.43748,-0.44666 1.00463,-0.73589 1.39243,-1.23613 0.0894,-0.11537 0.10835,-0.2792 0.20924,-0.3847 1.27767,-1.33603 0.39921,-0.0644 1.0371,-1.05439 0.18664,-0.47678 0.83875,-0.7513 1.06361,-1.17946 0.0206,-0.0392 -0.0805,-0.0851 -0.0547,-0.12093 0.0804,-0.11135 0.2363,-0.14841 0.32481,-0.25341 0.0222,-0.0264 -0.0687,-0.006 -0.10308,-0.01 0.16725,-0.18542 0.15364,-0.21433 0.47029,-0.27594 0.072,-0.014 -0.12669,0.0751 -0.19469,0.10262 -0.0539,0.0218 0.0308,-0.11753 0.0713,-0.15932 0.0532,-0.0549 0.1244,-0.0889 0.1866,-0.13335 -0.009,-0.0131 -0.0367,-0.0279 -0.0259,-0.0393 0.0417,-0.0441 0.10413,-0.0623 0.15426,-0.0965 0.11887,-0.0809 0.3165,-0.21382 0.40617,-0.33652 0.0283,-0.0388 0.0131,-0.10326 0.0485,-0.13575 0.1186,-0.10887 0.26521,-0.1826 0.39781,-0.2739 0.15857,-0.0562 -0.0484,-0.19147 0.009,-0.2544 0.10138,-0.11212 0.25114,-0.16941 0.36637,-0.26724 0.41643,-0.35357 -0.14365,-0.0556 0.41204,-0.45559 2.71776,-1.32231 0.60131,-0.28461 7.37972,-4.23073 0.11365,-0.0662 0.20725,-0.16397 0.32267,-0.227 0.0333,-0.0182 0.14611,-0.0303 0.11336,-0.0111 -6.75601,3.96381 -9.49037,4.8669 -6.86186,3.99253 0.047,-0.016 0.11228,-0.007 0.14104,-0.0479 0.018,-0.0253 -0.10745,0.002 -0.09,-0.0239 0.0192,-0.0282 0.3937,-0.28182 0.40707,-0.34284 0.0104,-0.0476 -0.0885,-0.0405 -0.13281,-0.0608 0.0752,-0.0535 0.15034,-0.10696 0.22551,-0.16044 0.13738,-0.2285 0.45904,-0.2856 0.62765,-0.46899 0.0394,-0.0428 -0.18885,0.1 -0.16849,0.0455 0.0436,-0.11675 0.35077,-0.19596 0.13204,-0.13262 0.081,-0.0276 0.16761,-0.0422 0.24295,-0.0828 0.0301,-0.0162 0.038,-0.0575 0.0624,-0.0815 0.0479,-0.0473 0.13828,-0.0659 0.15345,-0.13156 0.0102,-0.0439 -0.11753,-0.0454 -0.10273,-0.088 0.23893,-0.23034 0.17648,-0.10365 0.24201,-0.34782 0,0 7.50008,-3.37428 7.50008,-3.37428 l 0,0 c 0.22538,0.3096 0.18897,-0.0688 -0.27083,0.41041 -0.19089,0.19895 0.11748,0.15111 0.12782,0.23123 0.01,0.0742 -0.0631,0.13563 -0.0947,0.20344 -0.12333,0.1349 -0.23424,0.24714 -0.39022,0.35068 -0.0626,0.0416 -0.23469,0.0355 -0.20074,0.10256 0.0369,0.0728 0.2455,-0.0984 0.24415,-0.0169 -0.002,0.0923 -0.164,0.085 -0.24599,0.12752 -0.0346,0.0429 -0.0595,0.0958 -0.10367,0.12875 -0.0767,0.0572 -0.17357,0.0823 -0.25222,0.13665 -0.003,0.002 -0.33616,0.30559 -0.33952,0.31169 -0.0133,0.0242 0.0569,0.0466 0.0432,0.0706 -0.0556,0.0974 -0.15056,0.1662 -0.22584,0.2493 -0.0155,0.0377 -0.0114,0.0923 -0.0465,0.11298 -2.44739,1.44161 -4.92121,2.83787 -7.37932,4.26111 -0.087,0.0503 -0.34941,0.19852 -0.26261,0.14792 2.37267,-1.38315 4.75141,-2.75586 7.12502,-4.13739 0.079,-0.046 -0.16077,0.0871 -0.24116,0.13072 -0.36265,0.0891 -0.59693,0.38872 -0.83608,0.65356 -0.1037,0.0984 -0.21749,0.18721 -0.3111,0.29529 -0.1863,0.21512 -0.19132,0.56875 -0.45575,0.72983 -0.11005,0.0508 -0.212,0.12526 -0.33013,0.15233 -0.0703,0.0161 0.11193,-0.0984 0.18128,-0.11823 0.0559,-0.016 -0.094,0.0687 -0.13862,0.10601 -0.10716,0.0894 -0.21869,0.25242 -0.37543,0.23094 0.003,0.0237 -0.007,0.0546 0.0102,0.071 0.0244,0.0231 0.11511,0.002 0.0963,0.0297 -0.0795,0.11776 -0.20122,0.20146 -0.31223,0.29014 -0.48456,0.3871 -1.09081,0.68115 -1.35347,1.27907 -0.0692,0.13697 -0.11862,0.28593 -0.20769,0.4109 -0.26273,0.36861 -0.7592,0.80022 -1.06679,1.10161 -0.38311,0.37537 -0.76222,0.75502 -1.14293,1.13278 0,0 -7.60919,3.15183 -7.60919,3.15183 z"
           inkscape:connector-curvature="0" />
      </g>
      <g
         style="opacity:0.54958676;fill:url(#linearGradient4462);fill-opacity:1;filter:url(#filter5988-2-3)"
         id="g6238-8-4"
         transform="matrix(4,0,0,4,-468.7931,-1516.6047)">
        <path
           style="fill:url(#linearGradient4442);fill-opacity:1;fill-rule:evenodd;stroke:#000000;stroke-width:1.92400002;stroke-linecap:round;stroke-linejoin:miter;stroke-miterlimit:4;stroke-opacity:1;stroke-dasharray:none;stroke-dashoffset:0"
           id="path6240-1-7"
           d="m 271.47237,440.85025 c -0.20057,0.63114 -0.24286,1.29915 -0.2927,1.9553 -0.0993,1.46405 -0.0318,2.93148 -0.007,4.39669 -0.0111,1.96155 -0.16132,1.51741 -3.51183,2.49007 -0.15977,0.0464 -0.15475,-0.29488 -0.2211,-0.44744 -0.0841,-0.19333 -0.15317,-0.39283 -0.22976,-0.58925 -0.4395,-1.19521 -1.02377,-2.3406 -1.71002,-3.41335 -0.40953,-0.64019 -0.71385,-1.0153 -1.17067,-1.61532 -0.54427,-0.60306 -1.48219,-1.94113 -2.34439,-2.11117 -0.11344,-0.0224 -0.23094,0.0118 -0.34641,0.0178 0.88513,-0.43976 1.6808,-1.15497 2.6554,-1.31928 0.40238,-0.0678 -0.50589,0.64305 -0.71671,0.99244 -0.32586,0.54006 -0.61074,1.10434 -0.88976,1.67002 -0.77354,1.56829 -1.58766,3.46622 -2.21081,5.07413 -0.42379,1.09352 -0.80452,2.20323 -1.20679,3.30485 -2.06107,5.96669 -3.8277,12.06996 -4.73024,18.33023 -0.13821,0.95862 -0.22187,1.92431 -0.3328,2.88646 -0.22028,2.95394 -0.131,5.99264 0.78463,8.83575 0.0937,0.29103 0.21541,0.57229 0.32312,0.85844 0.045,0.13631 0.65286,1.35199 0.91299,1.28996 0.11734,-0.028 0.29304,-0.35122 0.17792,-0.31514 -0.94378,0.29573 -1.7696,1.26848 -2.74747,1.12031 -0.50391,-0.0764 0.26511,-0.98426 0.39766,-1.47639 1.54392,-7.252 3.04179,-14.51398 4.52014,-21.7798 1.39931,-6.72757 2.83912,-13.44648 4.28738,-20.16364 0.45933,-1.90687 0.74977,-3.87109 1.425,-5.72025 0.46467,-1.2829 3.08276,-3.33224 3.55146,-1.75267 0.0778,0.26223 0.13447,1.62998 0.13615,1.65636 0.0345,0.54454 0.0721,1.08887 0.10815,1.6333 0.31862,5.58317 0.84454,11.15034 1.56189,16.69626 0.19033,1.47144 0.40553,2.93956 0.6083,4.40933 1.09344,7.03989 2.37991,14.05196 4.02503,20.98463 0.17618,0.67277 0.35235,1.34554 0.52853,2.01831 0,0 -2.87203,1.54836 -2.87203,1.54836 l 0,0 c -0.14624,-0.69126 -0.29247,-1.38252 -0.43871,-2.07378 -1.37085,-7.04174 -2.54233,-14.12067 -3.64858,-21.20837 -0.6104,-4.12321 -1.22682,-8.24577 -1.7453,-12.38187 -0.59351,-4.73467 -0.19523,-1.88023 -0.71803,-6.18056 -0.0912,-0.75031 -0.19591,-1.49891 -0.29387,-2.24837 -0.0744,-0.52365 -0.14458,-1.04791 -0.22317,-1.57094 -0.0503,-0.33504 -0.10444,-0.66955 -0.16359,-1.00315 -0.0261,-0.14706 -0.0815,-0.28952 -0.0921,-0.43851 -0.002,-0.0351 0.0362,0.099 0.0669,0.0818 1.04565,-0.58852 2.0451,-1.2562 3.0846,-1.85551 0.0618,-0.0356 -0.0951,0.10624 -0.14263,0.15937 -0.94359,1.7932 -1.25654,3.94325 -1.86213,5.85463 -1.74082,6.75645 -3.31872,13.55273 -4.75797,20.37998 -1.43648,7.13118 -2.84594,14.2729 -3.88247,21.47503 -0.0772,0.4873 0.0922,1.0898 -0.23175,1.46191 -0.93779,1.07707 -2.18496,1.84618 -3.35791,2.66087 -0.11354,0.0789 -0.28878,0.0195 -0.41259,-0.042 -0.3998,-0.19862 -0.73924,-1.16158 -0.89442,-1.51112 -0.0971,-0.30349 -0.20867,-0.60271 -0.29118,-0.91047 -0.79593,-2.96871 -0.77784,-6.09923 -0.476,-9.13371 0.13839,-0.98123 0.25221,-1.96624 0.41518,-2.94369 1.04208,-6.25015 2.80005,-12.36079 4.73443,-18.38482 0.36846,-1.08994 0.72118,-2.18532 1.10537,-3.26981 0.65455,-1.84763 1.19055,-3.21651 1.95141,-4.98423 0.23712,-0.55091 0.48027,-1.09949 0.74028,-1.63997 0.17163,-0.35675 0.23839,-0.81158 0.55405,-1.0505 1.12945,-0.85487 2.44548,-1.43018 3.66822,-2.14527 0.13609,0.0325 0.27852,0.0452 0.40827,0.0976 0.94189,0.38023 1.69705,1.58189 2.32728,2.31891 1.16822,1.58254 2.22487,3.24527 2.99791,5.06115 0.0819,0.17834 0.15393,0.36153 0.24565,0.53502 0.058,0.10976 0.3036,0.24061 0.20246,0.31263 -0.98393,0.70057 -2.12719,1.14823 -3.15201,1.7875 -0.0548,0.0341 0.13086,0.10374 0.18239,0.0649 0.20373,-0.15363 -0.0531,-0.64719 0.12873,-0.75459 0.0349,-1.4668 -0.0473,-2.93257 -0.0262,-4.39916 0.0177,-0.66586 0.0381,-1.33324 0.17054,-1.98848 0,0 3.36378,-1.59763 3.36378,-1.59763 z"
           inkscape:connector-curvature="0" />
        <path
           style="fill:url(#linearGradient4444);fill-opacity:1;fill-rule:nonzero;stroke:#000000;stroke-width:1.92400002;stroke-linecap:round;stroke-linejoin:miter;stroke-miterlimit:4;stroke-opacity:1;stroke-dasharray:none;stroke-dashoffset:0"
           id="path6242-1-4"
           d="m 190.05565,420.53442 c -0.27352,1.916 -0.31607,2.05224 -0.49816,4.34693 -0.23061,2.90607 -0.37211,5.81852 -0.56401,8.7274 -0.40705,6.17019 -0.37749,5.58872 -0.85242,12.00283 -0.43881,6.63071 -0.94566,13.26029 -1.13073,19.90486 -0.0549,1.97005 -0.0682,3.94121 -0.0709,5.91202 -0.002,1.75349 -0.0103,3.50793 0.0556,5.26018 0.0504,1.34191 0.19552,2.67858 0.29327,4.01788 0.15293,0.82803 0.20762,1.68039 0.45877,2.4841 0.87328,2.79454 9.84825,0.72604 -6.31738,3.76481 -0.62833,0.11812 0.47119,-1.19262 0.6265,-1.8128 0.44794,-1.78874 0.63915,-3.81304 0.8649,-5.6304 0.0842,-0.91379 0.16835,-1.82758 0.25252,-2.74137 0.056,-0.71583 0.1042,-1.43231 0.16805,-2.14748 0.0397,-0.4444 0.0531,-0.89377 0.14248,-1.33089 0.0437,-0.21348 0.0556,-0.51035 0.25294,-0.60279 8.30176,-3.88941 5.80323,-4.88316 9.89448,-1.97708 0.9938,0.56872 1.95757,1.19348 2.98142,1.70615 4.70302,2.35493 9.74771,3.90616 14.93006,4.78451 2.00522,0.33986 4.03931,0.47913 6.05897,0.7187 0,0 -4.26223,3.01855 -4.26223,3.01855 l 0,0 c -2.02545,-0.25242 -4.05941,-0.44403 -6.07635,-0.75728 -2.0639,-0.32054 -4.12285,-0.68562 -6.16075,-1.14323 -4.62704,-1.039 -9.08852,-2.62565 -13.47787,-4.39692 -0.76338,-0.29657 -2.76508,-0.2225 -2.29015,-0.8897 1.37865,-1.93679 3.93319,-2.67427 5.83885,-4.09565 0.22803,-0.17008 -0.61617,0.10133 -0.78779,0.32821 -0.30954,0.4092 -0.41649,0.94242 -0.54845,1.43825 -0.42305,1.58966 -0.5723,3.41716 -0.76368,5.02965 -0.14362,1.9337 -0.29053,3.48922 -0.31996,5.41267 -0.009,0.58443 0.49889,1.39111 0.0399,1.75304 -8.48482,6.69116 -7.58487,6.4854 -7.27415,2.77991 0.0799,-0.95256 0.14397,-1.90638 0.21596,-2.85957 0.72907,-12.80166 -0.29736,5.54176 0.48515,-9.7278 0.10353,-2.02027 0.23859,-4.03881 0.34842,-6.05875 0.35926,-6.6069 0.66491,-13.2167 0.97052,-19.82625 0.19511,-7.44336 0.44681,-14.95095 -0.51428,-22.35805 -0.0582,-0.44858 -0.14907,-0.89231 -0.2236,-1.33846 0,0 7.25415,-3.69618 7.25415,-3.69618 z"
           inkscape:connector-curvature="0" />
        <path
           style="fill:url(#linearGradient4446);fill-opacity:1;fill-rule:nonzero;stroke:#000000;stroke-width:1.92400002;stroke-linecap:round;stroke-linejoin:miter;stroke-miterlimit:4;stroke-opacity:1;stroke-dasharray:none;stroke-dashoffset:0"
           id="path6244-1-0"
           d="m 190.99024,459.12554 c 0.21985,-0.85615 0.31809,-1.27355 0.60424,-2.188 0.56977,-1.8208 1.19168,-3.62498 1.76469,-5.44476 0.24926,-0.79161 2.6186,-8.47483 2.73947,-8.86655 1.58471,-5.28534 3.25668,-10.54972 5.31828,-15.67184 0.81063,-2.01402 2.08301,-5.02956 3.30163,-6.97248 0.32502,-0.5182 0.77338,-0.94794 1.16007,-1.42191 2.52494,-1.23815 4.84181,-3.05185 7.57481,-3.71446 0.59607,-0.14451 0.59286,1.10869 0.65716,1.71864 0.13527,1.28307 -0.55859,4.2643 -0.81838,5.38297 -0.002,0.007 -1.39204,5.45099 -1.43861,5.63331 -0.4003,2.14653 -0.65583,2.86998 -0.58249,5.07337 0.12072,3.62638 1.27415,7.05578 2.23601,10.51746 0.43163,1.55341 0.8511,3.11017 1.27664,4.66526 1.37877,4.99393 2.47095,10.06233 3.13289,15.20261 0.26792,2.08055 0.58327,5.31156 0.54746,7.52472 -0.01,0.61856 -0.12981,1.23046 -0.19471,1.84569 -1.93214,2.77584 -1.7766,2.84135 -8.42146,3.51567 -0.70669,0.0717 -0.6639,-1.25886 -0.92841,-1.91809 -0.31825,-0.7932 -0.566,-1.61338 -0.81639,-2.43055 -0.60038,-1.95932 -0.79838,-2.9214 -1.26408,-4.87811 -0.557,-2.17042 -0.24974,-1.21512 -0.85715,-2.88588 0,0 6.84739,-3.66781 6.84739,-3.66781 l 0,0 c 0.14253,1.90678 0.0452,0.84827 0.31949,3.17289 0.14083,0.77831 0.23644,1.56617 0.42249,2.33493 0.36224,1.49683 0.95341,3.3043 1.72789,4.65593 0.30101,0.52531 1.49024,0.98804 1.09652,1.44796 -1.58059,1.84632 -4.04932,2.70014 -5.94727,4.21835 -0.32398,0.25916 0.78508,-0.26868 1.17761,-0.40301 0.28969,-0.66744 0.69909,-1.29485 0.86907,-2.00231 0.56904,-2.36843 0.5103,-5.49939 0.32045,-7.83956 -0.41664,-5.13577 -1.6573,-10.15965 -3.21027,-15.05693 -0.51588,-1.50201 -1.03177,-3.00402 -1.54766,-4.50602 -0.48131,-1.30785 -0.99084,-2.60565 -1.44394,-3.92354 -0.72008,-2.09448 -1.43251,-4.1902 -1.62319,-6.41573 -0.19142,-2.23427 0.14912,-3.1001 0.5938,-5.26087 0.78629,-2.70095 1.6689,-5.43084 1.86266,-8.25869 0.0458,-0.66914 0.0234,-1.34559 -0.0584,-2.01127 -0.0356,-0.28942 -0.51115,-0.63452 -0.2905,-0.82516 1.6763,-1.44831 3.68225,-2.464 5.52337,-3.696 -0.62218,0.51289 -1.33829,0.92946 -1.86653,1.53866 -1.69936,1.9598 -3.22479,5.00668 -4.24959,7.2817 -2.24288,4.97915 -3.81798,10.22013 -5.12029,15.51295 -0.91516,3.80967 -1.83133,7.60643 -2.51228,11.46627 -0.0604,0.34256 -0.41891,2.5443 -0.48816,3.18812 -0.0246,0.22871 -0.0235,0.45945 -0.0352,0.68918 0,0 -7.35907,3.67289 -7.35907,3.67289 z"
           inkscape:connector-curvature="0" />
        <path
           style="fill:url(#linearGradient4448);fill-opacity:1;fill-rule:nonzero;stroke:#000000;stroke-width:1.92400002;stroke-linecap:round;stroke-linejoin:miter;stroke-miterlimit:4;stroke-opacity:1;stroke-dasharray:none;stroke-dashoffset:0"
           id="path6246-6-8"
           d="m 198.5226,449.95447 c 0.14797,0.15165 0.27946,0.32136 0.44391,0.45497 1.65515,1.34476 3.65943,2.30374 5.57864,3.18724 2.85726,1.31533 4.3529,1.85926 7.32387,3.03726 4.84678,1.88907 9.82305,3.40671 14.78694,4.9489 3.60264,1.11927 1.12168,0.37734 3.84584,1.18158 3.1831,1.07733 2.03663,0.53613 -6.88285,4.60658 -0.40014,0.18261 -0.81749,-0.32547 -1.23213,-0.47218 -0.56731,-0.20073 -1.142,-0.37992 -1.713,-0.56988 0,0 6.11818,-4.20191 6.11818,-4.20191 l 0,0 c 0.63323,0.13702 1.26117,0.30125 1.89968,0.41106 0.49464,0.0851 1.84632,-0.18628 1.49575,0.1729 -6.48081,6.63987 -6.47004,7.02176 -6.08772,4.30324 -0.34003,-0.22901 -0.6589,-0.49314 -1.02011,-0.68704 -1.42696,-0.766 -3.39738,-1.50792 -4.85578,-2.07093 -3.80503,-1.4689 -7.65312,-2.82113 -11.50653,-4.15671 -1.33639,-0.48147 -2.66864,-0.97454 -4.00916,-1.44439 -2.66132,-0.9328 -4.29984,-1.416 -6.86479,-2.39531 -0.86722,-0.33112 -2.70189,-1.09503 -3.64231,-1.57934 -0.26303,-0.13546 -0.50513,-0.30818 -0.75769,-0.46227 0,0 7.07926,-4.26377 7.07926,-4.26377 z"
           inkscape:connector-curvature="0" />
        <path
           style="fill:url(#linearGradient4450);fill-opacity:1;fill-rule:nonzero;stroke:#000000;stroke-width:1.92400002;stroke-linecap:round;stroke-linejoin:miter;stroke-miterlimit:4;stroke-opacity:1;stroke-dasharray:none;stroke-dashoffset:0"
           id="path6248-4-4"
           d="m 221.29572,471.82302 c 0.55416,-4.55191 0.59948,-9.14661 0.72676,-13.7246 0.18376,-8.2455 0.198,-16.49694 -0.003,-24.74228 -0.089,-4.62014 -0.23184,-3.7402 7.03052,-7.56796 0.35307,-0.18609 0.36078,0.72091 0.44783,1.11041 0.0853,0.38182 -0.31691,2.27574 -0.31711,2.62661 -0.0277,1.70404 -0.005,0.5664 -0.0413,2.01814 -0.004,0.16404 0.11406,0.38588 -0.011,0.49215 -2.11165,1.79453 -4.37799,3.39867 -6.56699,5.098 l 5.94392,-5.81693 0,0 c -2.09931,1.65999 -4.19863,3.31999 -6.29794,4.97998 0.0785,-0.16699 0.18492,-0.32348 0.23539,-0.50094 0.19301,-0.67853 0.18923,-1.33242 0.23269,-2.03276 -0.11075,-4.34923 0.0921,1.5437 -0.18124,-2.0872 -0.004,-0.0479 0.0349,-0.0948 0.0726,-0.12468 2.05277,-1.62517 4.03013,-3.3555 6.19087,-4.83408 0.84013,-0.5749 -3.56014,4.59231 -0.93298,2.90803 -0.11683,0.99893 -0.26885,1.99439 -0.35049,2.99681 -0.10539,1.29392 -0.15994,2.59171 -0.21033,3.88893 -0.23422,6.02995 -0.12377,12.06565 0.12811,18.09299 0.16278,3.61285 0.13442,3.44858 0.35964,6.8271 0.0913,1.37021 0.21952,2.73782 0.30831,4.10819 0.13454,2.07683 -0.035,0.28512 0.11737,1.78 l -6.8818,4.50408 z"
           inkscape:connector-curvature="0"
           sodipodi:nodetypes="cccsccccccccccccscsscccccc" />
        <path
           style="fill:url(#linearGradient4452);fill-opacity:1;fill-rule:nonzero;stroke:#000000;stroke-width:1.92400002;stroke-linecap:round;stroke-linejoin:miter;stroke-miterlimit:4;stroke-opacity:1;stroke-dasharray:none;stroke-dashoffset:0"
           id="path6250-6-0"
           d="m 229.1748,429.89467 c 0.5504,2.35561 1.43537,4.62083 2.20326,6.91071 0.28743,0.85714 0.55776,1.71992 0.83665,2.57987 0.84001,2.59655 1.80039,5.15204 2.7924,7.69365 0.51975,1.33164 1.00251,2.59446 1.62489,3.87702 0.19222,0.39611 0.41964,0.77417 0.62945,1.16125 0.15065,0.20077 0.26055,0.43991 0.45195,0.60228 0.0547,0.0464 0.14079,-0.0266 0.2112,-0.0396 -2.23545,1.48473 -4.39785,3.08579 -6.70635,4.45418 -0.1521,0.0902 0.0751,-0.34797 0.0774,-0.52477 0.007,-0.5242 -0.10631,-1.05886 -0.19215,-1.57162 -0.17845,-0.84014 -0.0808,-0.46177 -0.2768,-1.13915 0,0 6.74879,-4.54914 6.74879,-4.54914 l 0,0 c 0.0499,0.75184 0.0101,0.34325 0.13434,1.22424 0.0831,0.42083 0.21954,1.14277 0.32692,1.56351 0.0547,0.21453 0.35732,0.49366 0.1885,0.63691 -0.71813,0.60927 -5.87581,7.72831 -7.0034,4.59545 -0.0956,-0.26565 -0.1595,-0.54168 -0.23928,-0.81252 -1.35192,-4.43213 -2.87475,-8.81388 -4.50595,-13.15047 -1.22586,-2.98439 -2.483,-5.96869 -4.07753,-8.77938 0,0 6.77506,-4.73226 6.77506,-4.73226 z"
           inkscape:connector-curvature="0" />
        <path
           style="fill:url(#linearGradient4454);fill-opacity:1;fill-rule:nonzero;stroke:#000000;stroke-width:1.92400002;stroke-linecap:round;stroke-linejoin:miter;stroke-miterlimit:4;stroke-opacity:1;stroke-dasharray:none;stroke-dashoffset:0"
           id="path6252-9-4"
           d="m 231.94736,456.60816 c 1.67917,-1.94753 3.14876,-4.07121 4.47498,-6.27214 0.44725,-0.74224 0.86862,-1.49977 1.30293,-2.24965 2.03806,-3.64973 3.79645,-7.46331 6.04918,-10.99027 0.70863,-1.1293 1.89741,-1.7917 2.7151,-2.82073 0.26825,-0.29148 0.0495,-0.25998 0.0428,-0.16027 -0.003,0.0457 0.0196,0.0896 0.0292,0.13445 0,0 6.19367,-5.61195 6.19367,-5.61195 l 0,0 c 0.53463,0.42626 0.94333,0.79971 0.83505,1.55901 -0.0682,0.13777 -0.12029,0.28475 -0.20459,0.4133 -0.36853,0.56201 -0.88527,1.00549 -1.41263,1.4084 -0.23512,0.17964 -0.48965,0.33466 -0.71325,0.52846 -0.27232,0.23603 -0.51395,0.5053 -0.77094,0.75794 -0.28838,0.36504 -0.59449,0.71673 -0.86513,1.0951 -0.63267,0.88451 -1.57535,2.43585 -2.10443,3.32967 -1.31454,2.22081 -2.50875,4.50563 -3.67389,6.8077 -0.93669,1.76728 -1.25698,2.41572 -2.23481,4.09993 -0.68726,1.18372 -1.42501,2.32884 -2.16911,3.47594 -0.1,0.15413 -0.19147,0.31362 -0.2872,0.47043 0,0 -7.207,4.02468 -7.207,4.02468 z"
           inkscape:connector-curvature="0" />
        <path
           style="fill:url(#linearGradient4456);fill-opacity:1;fill-rule:nonzero;stroke:#000000;stroke-width:1.92400002;stroke-linecap:round;stroke-linejoin:miter;stroke-miterlimit:4;stroke-opacity:1;stroke-dasharray:none;stroke-dashoffset:0"
           id="path6254-7-1"
           d="m 254.91306,426.61351 c -0.0456,0.1751 -0.099,2.35733 -0.137,2.53424 -0.1601,0.74421 -0.26257,1.48589 -0.38173,2.23878 -0.37165,2.34813 -0.68088,4.70043 -0.98587,7.05832 -0.59888,4.3731 -1.17825,8.74908 -1.82468,13.11555 -0.38787,2.61993 -1.26988,8.17542 -1.6114,10.73778 -0.24047,1.80415 -0.42882,3.61487 -0.64324,5.4223 -0.39955,4.53907 -0.79112,9.11814 -0.43568,13.67671 0.0988,1.26602 0.3648,3.39802 0.95765,4.66315 0.14476,0.3089 0.44068,0.52085 0.66102,0.78129 2.41253,-1.6577 0.56653,-0.38393 -5.64904,3.65521 l 6.91734,-3.94918 0,0 c -7.17655,5.49006 -4.63075,7.08811 -7.59792,4.85646 -0.13264,-0.41123 -0.32122,-0.80846 -0.39782,-1.2337 -0.29999,-1.66527 -0.25408,-3.6876 -0.20553,-5.32705 0.14003,-4.72914 0.5521,-9.45128 1.0569,-14.15327 1.29479,-10.5415 0.0462,-0.35445 1.32993,-10.89212 0.71491,-5.86836 1.49295,-11.74416 1.65963,-17.6607 0.0124,-0.47923 0.10499,-4.22823 0.13977,-4.99625 0.062,-1.37019 0.20579,-2.74059 0.12295,-4.11434 z"
           inkscape:connector-curvature="0"
           sodipodi:nodetypes="ccscsscccccccccscscccc" />
        <path
           style="fill:url(#linearGradient4458);fill-opacity:1;fill-rule:nonzero;stroke:#000000;stroke-width:1.92400002;stroke-linecap:round;stroke-linejoin:miter;stroke-miterlimit:4;stroke-opacity:1;stroke-dasharray:none;stroke-dashoffset:0"
           id="path6256-1-6"
           d="m 154.13295,505.64383 c -0.0177,-0.29303 -0.0909,-0.588 -0.0529,-0.87911 0.0793,-0.60861 0.26686,-1.19815 0.40144,-1.79696 0.18265,-0.81267 1.35498,-5.99035 1.42188,-6.34079 2.40782,-12.61341 -1.30688,5.0156 1.79161,-9.34433 0.33375,-1.80098 0.6675,-3.60197 1.00125,-5.40295 0.1701,-1.82013 0.18171,-3.6621 0.51029,-5.46038 0.37805,-2.0691 1.11462,-4.05719 1.60254,-6.10316 1.46658,-6.14972 0.98893,-5.04512 2.18338,-11.03537 0.33062,-1.65808 0.72149,-3.30357 1.08223,-4.95536 1.80509,-7.02476 0.36135,-1.68416 2.17976,-7.80751 0.2438,-0.82098 0.42483,-1.661 0.69937,-2.4722 0.1496,-0.442 0.84348,-1.91396 1.04461,-2.58508 0.0283,-0.0944 0.0148,-0.19646 0.0222,-0.29469 2.50154,-1.1009 4.89859,-2.47909 7.5046,-3.3027 0.28217,-0.0892 0.23699,0.55524 0.25392,0.85068 0.0293,0.51043 -0.0477,1.02281 -0.11747,1.52929 -0.10743,0.77999 -0.37111,1.53937 -0.41349,2.32559 -0.0477,0.88551 0.14532,1.76965 0.14491,2.65645 -5.3e-4,1.16002 -0.0985,2.31795 -0.14772,3.47692 -0.0595,2.82517 0.14047,5.64636 0.15456,8.47019 0.008,1.6327 -0.11445,3.26574 -0.0653,4.89772 0.13469,4.47399 0.51109,4.98998 0.82391,9.37388 0.0988,1.38453 0.10372,2.77416 0.15558,4.16123 0.28981,2.06437 0.0231,4.15334 0.1838,6.22202 0.0492,0.63383 0.2056,1.25477 0.3127,1.88143 0.0711,0.41587 0.14859,0.83062 0.2218,1.24612 0.0431,0.2449 0.0577,0.49633 0.12727,0.73507 0.027,0.0925 0.10505,0.16157 0.15758,0.24236 0,0 -7.33018,3.80108 -7.33018,3.80108 l 0,0 c -0.11352,-0.78129 0.0846,-1.84054 0.1414,-2.59688 0.0529,-0.70509 0.0771,-1.41224 0.1361,-2.11684 0.54355,-6.48752 0.0578,0.95476 0.50144,-6.57191 -0.068,-1.37715 -0.12668,-2.75479 -0.20385,-4.13146 -0.0866,-1.54516 -0.24786,-3.08677 -0.28749,-4.63385 -0.1521,-5.93791 0.27808,-4.01026 -0.0816,-9.82621 -0.0889,-1.4374 -0.35852,-2.86009 -0.44094,-4.29787 -0.0767,-1.3375 -0.0239,-2.67928 -0.0358,-4.01892 -1.07068,-5.70973 -0.25427,-0.61085 -0.73086,-5.78101 -0.0608,-0.65903 -0.22773,-1.30587 -0.28019,-1.96561 -0.0363,-0.45604 0.0165,-0.91488 0.0147,-1.37235 -6.2e-4,-0.16223 -0.16006,-0.40132 -0.0218,-0.4862 2.29622,-1.40961 4.73456,-2.57342 7.10184,-3.86013 -0.19719,0.0709 -0.42889,0.0808 -0.59159,0.21287 -0.93766,0.76138 -1.43923,1.75919 -1.95197,2.83551 -0.41006,0.86076 -0.74902,1.75363 -1.12175,2.6312 -2.14321,5.04607 -1.17883,2.45918 -2.93278,8.11548 -0.479,1.70482 -1.03448,3.38998 -1.437,5.11446 -0.40871,1.75102 -0.64094,3.53881 -0.99429,5.30184 -4.26709,21.29002 1.76088,-9.91836 -2.17109,11.50043 -0.3547,1.93215 -0.82625,3.84199 -1.16526,5.77695 -0.30726,1.75372 -0.51524,3.52339 -0.77286,5.28508 -0.16801,1.5868 -0.30905,3.17669 -0.50403,4.76041 -0.17391,1.4126 -0.49851,2.80762 -0.60245,4.22709 -0.0785,1.07236 0.0842,2.15032 0.0567,3.2252 -0.0423,1.65305 -0.43922,3.32492 -0.18758,4.98172 0,0 -7.29121,3.60156 -7.29121,3.60156 z"
           inkscape:connector-curvature="0" />
        <path
           style="fill:url(#linearGradient4460);fill-opacity:1;fill-rule:nonzero;stroke:#000000;stroke-width:1.92400002;stroke-linecap:round;stroke-linejoin:miter;stroke-miterlimit:4;stroke-opacity:1;stroke-dasharray:none;stroke-dashoffset:0"
           id="path6258-9-2"
           d="m 158.95649,484.06462 c 0.43748,-0.44666 1.00463,-0.73589 1.39243,-1.23613 0.0894,-0.11537 0.10835,-0.2792 0.20924,-0.3847 1.27767,-1.33603 0.39921,-0.0644 1.0371,-1.05439 0.18664,-0.47678 0.83875,-0.7513 1.06361,-1.17946 0.0206,-0.0392 -0.0805,-0.0851 -0.0547,-0.12093 0.0804,-0.11135 0.2363,-0.14841 0.32481,-0.25341 0.0222,-0.0264 -0.0687,-0.006 -0.10308,-0.01 0.16725,-0.18542 0.15364,-0.21433 0.47029,-0.27594 0.072,-0.014 -0.12669,0.0751 -0.19469,0.10262 -0.0539,0.0218 0.0308,-0.11753 0.0713,-0.15932 0.0532,-0.0549 0.1244,-0.0889 0.1866,-0.13335 -0.009,-0.0131 -0.0367,-0.0279 -0.0259,-0.0393 0.0417,-0.0441 0.10413,-0.0623 0.15426,-0.0965 0.11887,-0.0809 0.3165,-0.21382 0.40617,-0.33652 0.0283,-0.0388 0.0131,-0.10326 0.0485,-0.13575 0.1186,-0.10887 0.26521,-0.1826 0.39781,-0.2739 0.15857,-0.0562 -0.0484,-0.19147 0.009,-0.2544 0.10138,-0.11212 0.25114,-0.16941 0.36637,-0.26724 0.41643,-0.35357 -0.14365,-0.0556 0.41204,-0.45559 2.71776,-1.32231 0.60131,-0.28461 7.37972,-4.23073 0.11365,-0.0662 0.20725,-0.16397 0.32267,-0.227 0.0333,-0.0182 0.14611,-0.0303 0.11336,-0.0111 -6.75601,3.96381 -9.49037,4.8669 -6.86186,3.99253 0.047,-0.016 0.11228,-0.007 0.14104,-0.0479 0.018,-0.0253 -0.10745,0.002 -0.09,-0.0239 0.0192,-0.0282 0.3937,-0.28182 0.40707,-0.34284 0.0104,-0.0476 -0.0885,-0.0405 -0.13281,-0.0608 0.0752,-0.0535 0.15034,-0.10696 0.22551,-0.16044 0.13738,-0.2285 0.45904,-0.2856 0.62765,-0.46899 0.0394,-0.0428 -0.18885,0.1 -0.16849,0.0455 0.0436,-0.11675 0.35077,-0.19596 0.13204,-0.13262 0.081,-0.0276 0.16761,-0.0422 0.24295,-0.0828 0.0301,-0.0162 0.038,-0.0575 0.0624,-0.0815 0.0479,-0.0473 0.13828,-0.0659 0.15345,-0.13156 0.0102,-0.0439 -0.11753,-0.0454 -0.10273,-0.088 0.23893,-0.23034 0.17648,-0.10365 0.24201,-0.34782 0,0 7.50008,-3.37428 7.50008,-3.37428 l 0,0 c 0.22538,0.3096 0.18897,-0.0688 -0.27083,0.41041 -0.19089,0.19895 0.11748,0.15111 0.12782,0.23123 0.01,0.0742 -0.0631,0.13563 -0.0947,0.20344 -0.12333,0.1349 -0.23424,0.24714 -0.39022,0.35068 -0.0626,0.0416 -0.23469,0.0355 -0.20074,0.10256 0.0369,0.0728 0.2455,-0.0984 0.24415,-0.0169 -0.002,0.0923 -0.164,0.085 -0.24599,0.12752 -0.0346,0.0429 -0.0595,0.0958 -0.10367,0.12875 -0.0767,0.0572 -0.17357,0.0823 -0.25222,0.13665 -0.003,0.002 -0.33616,0.30559 -0.33952,0.31169 -0.0133,0.0242 0.0569,0.0466 0.0432,0.0706 -0.0556,0.0974 -0.15056,0.1662 -0.22584,0.2493 -0.0155,0.0377 -0.0114,0.0923 -0.0465,0.11298 -2.44739,1.44161 -4.92121,2.83787 -7.37932,4.26111 -0.087,0.0503 -0.34941,0.19852 -0.26261,0.14792 2.37267,-1.38315 4.75141,-2.75586 7.12502,-4.13739 0.079,-0.046 -0.16077,0.0871 -0.24116,0.13072 -0.36265,0.0891 -0.59693,0.38872 -0.83608,0.65356 -0.1037,0.0984 -0.21749,0.18721 -0.3111,0.29529 -0.1863,0.21512 -0.19132,0.56875 -0.45575,0.72983 -0.11005,0.0508 -0.212,0.12526 -0.33013,0.15233 -0.0703,0.0161 0.11193,-0.0984 0.18128,-0.11823 0.0559,-0.016 -0.094,0.0687 -0.13862,0.10601 -0.10716,0.0894 -0.21869,0.25242 -0.37543,0.23094 0.003,0.0237 -0.007,0.0546 0.0102,0.071 0.0244,0.0231 0.11511,0.002 0.0963,0.0297 -0.0795,0.11776 -0.20122,0.20146 -0.31223,0.29014 -0.48456,0.3871 -1.09081,0.68115 -1.35347,1.27907 -0.0692,0.13697 -0.11862,0.28593 -0.20769,0.4109 -0.26273,0.36861 -0.7592,0.80022 -1.06679,1.10161 -0.38311,0.37537 -0.76222,0.75502 -1.14293,1.13278 0,0 -7.60919,3.15183 -7.60919,3.15183 z"
           inkscape:connector-curvature="0" />
      </g>
      <path
         transform="matrix(4,0,0,4,-1395.4455,-2881.1307)"
         style="opacity:0.88999999;fill:none;stroke:#000000;stroke-width:1.62540436px;stroke-linecap:butt;stroke-linejoin:miter;stroke-opacity:1;filter:url(#filter6210-2-3)"
         d="m 352.90654,767.23909 c 5.10701,17.99663 7.75345,36.47673 7.97458,55.0725 1.70736,143.5796 21.37064,-57.45274 44.27261,-96.46963"
         id="path6260-5-5"
         inkscape:connector-curvature="0"
         sodipodi:nodetypes="csc" />
      <path
         transform="matrix(1.8552554,0,0,2.3133755,-601.14271,-1006.3737)"
         style="opacity:0.88999999;fill:url(#linearGradient4464);fill-opacity:1;stroke:#000000;stroke-width:1.62540436px;stroke-linecap:butt;stroke-linejoin:miter;stroke-opacity:0;filter:url(#filter6210-1-1-9-0)"
         d="m 354.14385,574.44506 c 0.95467,34.41681 3.48996,110.59712 8.56486,117.2743 12.10212,-13.82828 36.97251,-120.37129 36.97251,-120.37129"
         id="path6260-0-2-2-4"
         inkscape:connector-curvature="0"
         sodipodi:nodetypes="ccc" />
      <path
         style="fill:none;stroke:#000000;stroke-width:6.50161743px;stroke-linecap:butt;stroke-linejoin:miter;stroke-opacity:1"
         d="m 21.9855,171.53262 c 20.42804,71.98652 31.0138,145.90692 31.89832,220.29 6.82944,574.3184 85.48256,-229.81096 177.09044,-385.87852"
         id="path6214-4-5"
         inkscape:connector-curvature="0"
         sodipodi:nodetypes="csc" />
    </g>
  </g>
</svg>
