/* XPM */
static char *valama[] = {
/* columns rows colors chars-per-pixel */
"32 32 37 1 ",
"  c #000300010001",
". c #00E000180033",
"X c #0256005C00A7",
"o c #031E00A300FD",
"O c #03C300B80128",
"+ c #073F017A024D",
"@ c #095601E302F2",
"# c #0EA502FC04A1",
"$ c #0F9D02E704AC",
"% c #147F040B0661",
"& c #18D1050A07D6",
"* c #222D06E70ABA",
"= c #24AD06CF0B0B",
"- c #296A08630D0A",
"; c #2D5709120E21",
": c #2E2809520E66",
"> c #305609AF0EE5",
", c #31CD09BD0EF8",
"< c #32EC09F90F9D",
"1 c #35760A8D10BD",
"2 c #42270D7014E4",
"3 c #617013AA1EB3",
"4 c #654F13F31F7F",
"5 c #954F1E5C2F3E",
"6 c #9FFA1FB231AC",
"7 c #A086204E3270",
"8 c #C40727EA3DED",
"9 c #D5232ACA42DC",
"0 c #D8F62C1F4459",
"q c #E28A2DBF4731",
"w c #E88E2F2848F6",
"e c #EDCD2FCA4A7A",
"r c #F13430AD4B42",
"t c #F53931844CF0",
"y c #FF7633884F93",
"u c #FFFF336D5044",
"i c None",
/* pixels */
"iiiiiiiiiiiiiiiiiiiiiiii iiiiiii",
"iiiiiiiiiiiiiiiiiiiiiii  iiiiiii",
"iiiiiiiiiiiiiiiiiiiiii  iiiiiiii",
"iiiiiiiiiiiiiiiiiiiiii  iiiiiiii",
"iiiiiiiiiiiiiiiiiiiii  iiiiiiiii",
"iiiiiiiiiiiiiiiiiiiii  iiiiiiiii",
"iiiiiiiiiiiiiiiiiiiii  iiiiiiiii",
"iiiiiiiiiiiiiiiiiiii  iiiiiiiiii",
"iiiiiiiiiiiiiiiiiiii  iiiiiiiiii",
"iiiiiiiii  iiiiiiii  iiiiiiiiiii",
"iiiiiiiii  iiiiiiii  iiiiiiiiiii",
"iiiiiiiii  iiiiiiii  iiiiiiiiiii",
"iiiiiiiiii  iiiiii  iiiiiiiiiiii",
"iiiiiiiiii  iiiiii  iiiiiiiiiiii",
"iiiiiiiiii  iiiiii  iiiiiiiiiiii",
"iiiiiiiiii  iiiiii  iiiiiiiiiiii",
"iiiiiiiiiii iiiii  iiiiiiiiiiiii",
"iiiiiiiiiii ,iiii  iiiiiiiiiiiii",
"iiiiiiiiiii <iiii  iiiiiiiiiiiii",
"iiiiiiiiiii ,iii= iiiiiiiiiiiiii",
"iiiiiiiiiii :iii$ iiiiiiiiiiiiii",
"iiiiiiiiiii :ru6O iiiiiiiiiiiiii",
"iiiiiiiiiii :eu4  iiiiiiiiiiiiii",
"iiiiiiiiiii -wt1 iiiiiiiiiiiiiii",
"iiiiiiiiiii =q9% iiiiiiiiiiiiiii",
"iiiiiiiiiii &07  iiiiiiiiiiiiiii",
"iiiiiiiiiiii#84 iiiiiiiiiiiiiiii",
"iiiiiiiiiiiiO5- iiiiiiiiiiiiiiii",
"iiiiiiiiiiiiO2@ iiiiiiiiiiiiiiii",
"iiiiiiiiiiii O iiiiiiiiiiiiiiiii",
"iiiiiiiiiiii   iiiiiiiiiiiiiiiii",
"iiiiiiiiiiii  iiiiiiiiiiiiiiiiii"
};
